<svg width="36" height="36" viewBox="0 0 36 36" fill="none" xmlns="http://www.w3.org/2000/svg">
<g clip-path="url(#clip0_737_5940)">
<path fill-rule="evenodd" clip-rule="evenodd" d="M18 36H9C6.61308 35.9999 4.32396 35.0517 2.63615 33.3638C0.94835 31.676 0.000104421 29.3869 0 27L0 9C0.000104421 6.61308 0.94835 4.32396 2.63615 2.63615C4.32396 0.94835 6.61308 0.000104421 9 0L27 0C29.3869 0 31.6761 0.948212 33.364 2.63604C35.0518 4.32387 36 6.61305 36 9V27C36 29.3869 35.0518 31.6761 33.364 33.364C31.6761 35.0518 29.3869 36 27 36H23.625C23.625 35.2541 23.3287 34.5387 22.8012 34.0113C22.2738 33.4838 21.5584 33.1875 20.8125 33.1875C20.0666 33.1875 19.3512 33.4838 18.8238 34.0113C18.2963 34.5387 18 35.2541 18 36Z" fill="#3764B9"/>
<path fill-rule="evenodd" clip-rule="evenodd" d="M16.875 10.125H27C28.2978 10.1249 29.5461 9.62643 30.487 8.73248C31.4278 7.83853 31.9895 6.61739 32.0559 5.32125C32.1223 4.02511 31.6884 2.75296 30.8439 1.76752C29.9993 0.782083 28.8085 0.158615 27.5175 0.025875C27.3454 0.0163125 27.1749 0 27 0H9C6.61308 0.000104421 4.32396 0.94835 2.63615 2.63615C0.94835 4.32396 0.000104421 6.61308 0 9L0 27C0.000104425 22.5245 1.77803 18.2323 4.94269 15.0677C8.10734 11.903 12.3995 10.1251 16.875 10.125Z" fill="#507DD2"/>
<path fill-rule="evenodd" clip-rule="evenodd" d="M27 18C25.22 18 23.4799 18.5278 21.9999 19.5168C20.5198 20.5057 19.3663 21.9113 18.6851 23.5558C18.0039 25.2004 17.8257 27.01 18.1729 28.7558C18.5202 30.5016 19.3774 32.1053 20.636 33.364C21.8947 34.6226 23.4984 35.4798 25.2442 35.8271C26.99 36.1743 28.7996 35.9961 30.4442 35.3149C32.0887 34.6337 33.4943 33.4802 34.4832 32.0001C35.4722 30.5201 36 28.78 36 27V9C36 11.3869 35.0518 13.6761 33.364 15.364C31.6761 17.0518 29.387 18 27 18Z" fill="#1E4BA0"/>
<path fill-rule="evenodd" clip-rule="evenodd" d="M29.25 10.125C29.25 10.4234 29.1315 10.7095 28.9205 10.9205C28.7095 11.1315 28.4234 11.25 28.125 11.25H24.75C24.4516 11.25 24.1655 11.3685 23.9545 11.5795C23.7435 11.7905 23.625 12.0766 23.625 12.375V16.875H27.8775C28.0439 16.875 28.2083 16.9119 28.3587 16.9831C28.5092 17.0543 28.6419 17.158 28.7475 17.2867C28.853 17.4154 28.9286 17.5659 28.969 17.7274C29.0093 17.8889 29.0133 18.0573 28.9807 18.2205C28.7718 19.2651 28.4881 20.6837 28.3057 21.5955C28.2547 21.8505 28.1169 22.0801 27.9158 22.245C27.7147 22.4099 27.4626 22.5 27.2025 22.5H23.625V36H18V22.5H14.625C14.3266 22.5 14.0405 22.3815 13.8295 22.1705C13.6185 21.9595 13.5 21.6734 13.5 21.375V18C13.5 17.7016 13.6185 17.4155 13.8295 17.2045C14.0405 16.9935 14.3266 16.875 14.625 16.875H18V12.375C18 10.5848 18.7112 8.8679 19.977 7.60203C21.2429 6.33616 22.9598 5.625 24.75 5.625H28.125C28.4234 5.625 28.7095 5.74353 28.9205 5.95451C29.1315 6.16548 29.25 6.45163 29.25 6.75V10.125Z" fill="white"/>
</g>
<defs>
<clipPath id="clip0_737_5940">
<rect width="36" height="36" fill="white"/>
</clipPath>
</defs>
</svg>
