<svg width="44" height="45" viewBox="0 0 44 45" fill="none" xmlns="http://www.w3.org/2000/svg">
<circle cx="21.8266" cy="22.3301" r="21.0522" fill="#F1F1F1" stroke="#E1E1E1" stroke-width="1.50375"/>
<path d="M25.8897 12.2613H28.8972H29.4987L31.9047 14.0658L33.7091 16.4718V18.8777L33.1076 23.0882L30.7017 27.2986L27.0927 30.3061L24.0852 32.7121L22.2808 33.9151H21.0778L18.6718 32.1106L16.8673 30.9076L15.0629 29.7046L13.2584 27.2986L12.0554 24.8927L10.8524 23.0882L10.2509 20.6822L9.64941 18.8777L10.2509 16.4718L12.0554 14.0658L15.0629 12.2613H18.0703L20.4763 14.0658L22.2808 15.8703L23.4838 14.0658L25.8897 12.2613Z" fill="white"/>
<path fill-rule="evenodd" clip-rule="evenodd" d="M14.201 18.7875C14.201 17.8389 14.9709 17.069 15.9196 17.069C16.3939 17.069 16.7788 16.684 16.7788 16.2097C16.7788 15.7354 16.3939 15.3504 15.9196 15.3504C14.0223 15.3504 12.4824 16.8902 12.4824 18.7875C12.4824 19.2619 12.8674 19.6468 13.3417 19.6468C13.816 19.6468 14.201 19.2619 14.201 18.7875Z" fill="#7EA91A"/>
<path fill-rule="evenodd" clip-rule="evenodd" d="M29.6682 18.7875C29.6682 17.8389 28.8982 17.069 27.9496 17.069C27.4753 17.069 27.0903 16.684 27.0903 16.2097C27.0903 15.7354 27.4753 15.3504 27.9496 15.3504C29.8469 15.3504 31.3867 16.8902 31.3867 18.7875C31.3867 19.2619 31.0018 19.6468 30.5274 19.6468C30.0531 19.6468 29.6682 19.2619 29.6682 18.7875Z" fill="#7EA91A"/>
<path fill-rule="evenodd" clip-rule="evenodd" d="M21.9351 14.0685C21.2537 13.3347 20.4572 12.5622 19.5876 11.9934C18.7128 11.4219 17.7633 11.055 16.7794 11.055C12.5114 11.055 9.0459 15.1426 9.0459 18.7886C9.0459 22.7954 11.0592 26.2308 13.5064 28.8972C17.0811 32.7915 21.5511 35.0239 21.5511 35.0239C21.7925 35.145 22.0778 35.145 22.3192 35.0239C22.3192 35.0239 26.7892 32.7915 30.3639 28.8972C32.8111 26.2308 34.8244 22.7954 34.8244 18.7886C34.8244 14.5205 31.3589 11.055 27.0908 11.055C26.107 11.055 25.1575 11.4219 24.2827 11.9934C23.4131 12.5622 22.6166 13.3347 21.9351 14.0685ZM21.2907 15.9203C21.454 16.105 21.6885 16.2107 21.9351 16.2107C22.1818 16.2107 22.4163 16.105 22.5796 15.9203C23.1777 15.2415 23.9124 14.4226 24.7433 13.7755C25.4616 13.217 26.2488 12.7736 27.0908 12.7736C30.4103 12.7736 33.1058 15.4692 33.1058 18.7886C33.1058 22.3434 31.2695 25.3698 29.0973 27.7354C26.3519 30.7257 23.0453 32.6737 21.9351 33.283C20.825 32.6737 17.5184 30.7257 14.773 27.7354C12.6008 25.3698 10.7645 22.3434 10.7645 18.7886C10.7645 15.9529 13.46 12.7736 16.7794 12.7736C17.6215 12.7736 18.4087 13.217 19.127 13.7755C19.9579 14.4226 20.6926 15.2415 21.2907 15.9203Z" fill="#220E5F"/>
</svg>

