<svg width="36" height="36" viewBox="0 0 36 36" fill="none" xmlns="http://www.w3.org/2000/svg">
<g clip-path="url(#clip0_737_5918)">
<path fill-rule="evenodd" clip-rule="evenodd" d="M27 36H9C6.61308 35.9999 4.32396 35.0517 2.63615 33.3638C0.94835 31.676 0.000104421 29.3869 0 27L0 9C0.000104421 6.61308 0.94835 4.32396 2.63615 2.63615C4.32396 0.94835 6.61308 0.000104421 9 0L27 0C29.3869 0 31.6761 0.948212 33.364 2.63604C35.0518 4.32387 36 6.61305 36 9V27C36 29.3869 35.0518 31.6761 33.364 33.364C31.6761 35.0518 29.3869 36 27 36Z" fill="#FF3A55"/>
<path fill-rule="evenodd" clip-rule="evenodd" d="M16.875 10.125H27C28.2978 10.1249 29.5461 9.62643 30.487 8.73248C31.4278 7.83853 31.9895 6.61739 32.0559 5.32125C32.1223 4.02511 31.6884 2.75296 30.8439 1.76752C29.9993 0.782083 28.8085 0.158615 27.5175 0.025875C27.3454 0.0163125 27.1749 0 27 0H9C6.61308 0.000104421 4.32396 0.94835 2.63615 2.63615C0.94835 4.32396 0.000104421 6.61308 0 9L0 27C0.000104425 22.5245 1.77803 18.2323 4.94269 15.0677C8.10734 11.903 12.3995 10.1251 16.875 10.125Z" fill="#FF796C"/>
<path fill-rule="evenodd" clip-rule="evenodd" d="M27 18C25.22 18 23.4799 18.5278 21.9999 19.5168C20.5198 20.5057 19.3663 21.9113 18.6851 23.5558C18.0039 25.2004 17.8257 27.01 18.1729 28.7558C18.5202 30.5016 19.3774 32.1053 20.636 33.364C21.8947 34.6226 23.4984 35.4798 25.2442 35.8271C26.99 36.1743 28.7996 35.9961 30.4442 35.3149C32.0887 34.6337 33.4943 33.4802 34.4832 32.0001C35.4722 30.5201 36 28.78 36 27V9C36 11.3869 35.0518 13.6761 33.364 15.364C31.6761 17.0518 29.387 18 27 18Z" fill="#E00047"/>
<path d="M25.0312 12.375C25.8079 12.375 26.4375 11.7454 26.4375 10.9688C26.4375 10.1921 25.8079 9.5625 25.0312 9.5625C24.2546 9.5625 23.625 10.1921 23.625 10.9688C23.625 11.7454 24.2546 12.375 25.0312 12.375Z" fill="white"/>
<path fill-rule="evenodd" clip-rule="evenodd" d="M18 13.5C18.89 13.5 19.76 13.7639 20.5001 14.2584C21.2401 14.7529 21.8169 15.4557 22.1575 16.2779C22.4981 17.1002 22.5872 18.005 22.4135 18.8779C22.2399 19.7508 21.8113 20.5526 21.182 21.182C20.5526 21.8113 19.7508 22.2399 18.8779 22.4135C18.005 22.5872 17.1002 22.4981 16.2779 22.1575C15.4557 21.8169 14.7529 21.2401 14.2584 20.5001C13.7639 19.76 13.5 18.89 13.5 18C13.5006 16.8067 13.9749 15.6625 14.8187 14.8187C15.6625 13.9749 16.8067 13.5006 18 13.5ZM18 11.25C19.335 11.25 20.6401 11.6459 21.7501 12.3876C22.8601 13.1293 23.7253 14.1835 24.2362 15.4169C24.7471 16.6503 24.8808 18.0075 24.6203 19.3169C24.3599 20.6262 23.717 21.829 22.773 22.773C21.829 23.717 20.6262 24.3599 19.3169 24.6203C18.0075 24.8808 16.6503 24.7471 15.4169 24.2362C14.1835 23.7253 13.1293 22.8601 12.3876 21.7501C11.6459 20.6401 11.25 19.335 11.25 18C11.2508 16.21 11.9623 14.4937 13.228 13.228C14.4937 11.9623 16.21 11.2508 18 11.25Z" fill="white"/>
<path fill-rule="evenodd" clip-rule="evenodd" d="M29.25 12.375C29.25 10.8832 28.6574 9.45242 27.6025 8.39752C26.5476 7.34263 25.1168 6.75 23.625 6.75H12.375C10.8832 6.75 9.45242 7.34263 8.39752 8.39752C7.34263 9.45242 6.75 10.8832 6.75 12.375V23.625C6.75 25.1168 7.34263 26.5476 8.39752 27.6025C9.45242 28.6574 10.8832 29.25 12.375 29.25H23.625C25.1168 29.25 26.5476 28.6574 27.6025 27.6025C28.6574 26.5476 29.25 25.1168 29.25 23.625V12.375ZM31.5 12.375C31.5 10.2864 30.6703 8.28338 29.1935 6.80653C27.7166 5.32969 25.7136 4.5 23.625 4.5H12.375C10.2864 4.5 8.28338 5.32969 6.80653 6.80653C5.32969 8.28338 4.5 10.2864 4.5 12.375V23.625C4.5 25.7136 5.32969 27.7166 6.80653 29.1935C8.28338 30.6703 10.2864 31.5 12.375 31.5H23.625C25.7136 31.5 27.7166 30.6703 29.1935 29.1935C30.6703 27.7166 31.5 25.7136 31.5 23.625V12.375Z" fill="white"/>
</g>
<defs>
<clipPath id="clip0_737_5918">
<rect width="36" height="36" fill="white"/>
</clipPath>
</defs>
</svg>
