<svg width="37" height="37" viewBox="0 0 37 37" fill="none" xmlns="http://www.w3.org/2000/svg">
<circle cx="18.3667" cy="18.3667" r="17.7333" fill="#F1F1F1" stroke="#E1E1E1" stroke-width="1.26667"/>
<path d="M21.7894 9.87976H24.3227H24.8294L26.856 11.3998L28.376 13.4264V15.4531L27.8694 18.9998L25.8427 22.5464L22.8027 25.0798L20.2694 27.1064L18.7494 28.1198H17.736L15.7094 26.5998L14.1894 25.5864L12.6694 24.5731L11.1494 22.5464L10.136 20.5198L9.12271 18.9998L8.61604 16.9731L8.10938 15.4531L8.61604 13.4264L10.136 11.3998L12.6694 9.87976H15.2027L17.2294 11.3998L18.7494 12.9198L19.7627 11.3998L21.7894 9.87976Z" fill="#E51937"/>
<path fill-rule="evenodd" clip-rule="evenodd" d="M11.9437 15.381C11.9437 14.5819 12.5923 13.9333 13.3914 13.9333C13.7909 13.9333 14.1152 13.6091 14.1152 13.2095C14.1152 12.81 13.7909 12.4857 13.3914 12.4857C11.7932 12.4857 10.4961 13.7828 10.4961 15.381C10.4961 15.7805 10.8204 16.1048 11.2199 16.1048C11.6195 16.1048 11.9437 15.7805 11.9437 15.381Z" fill="white"/>
<path fill-rule="evenodd" clip-rule="evenodd" d="M24.9742 15.381C24.9742 14.5819 24.3257 13.9333 23.5266 13.9333C23.1271 13.9333 22.8028 13.6091 22.8028 13.2095C22.8028 12.81 23.1271 12.4857 23.5266 12.4857C25.1248 12.4857 26.4219 13.7828 26.4219 15.381C26.4219 15.7805 26.0976 16.1048 25.6981 16.1048C25.2985 16.1048 24.9742 15.7805 24.9742 15.381Z" fill="white"/>
<path fill-rule="evenodd" clip-rule="evenodd" d="M18.4588 11.4051C17.8848 10.787 17.2138 10.1363 16.4813 9.65711C15.7445 9.17577 14.9447 8.8667 14.1159 8.8667C10.5207 8.8667 7.60156 12.3099 7.60156 15.381C7.60156 18.7562 9.29746 21.65 11.3589 23.896C14.37 27.1763 18.1353 29.0568 18.1353 29.0568C18.3386 29.1589 18.579 29.1589 18.7823 29.0568C18.7823 29.0568 22.5476 27.1763 25.5587 23.896C27.6201 21.65 29.316 18.7562 29.316 15.381C29.316 11.7858 26.3969 8.8667 22.8017 8.8667C21.9729 8.8667 21.1731 9.17577 20.4363 9.65711C19.7038 10.1363 19.0328 10.787 18.4588 11.4051ZM17.9159 12.9649C18.0535 13.1206 18.2511 13.2096 18.4588 13.2096C18.6665 13.2096 18.8641 13.1206 19.0017 12.9649C19.5054 12.3931 20.1243 11.7033 20.8242 11.1583C21.4293 10.6878 22.0924 10.3143 22.8017 10.3143C25.5978 10.3143 27.8684 12.5849 27.8684 15.381C27.8684 18.3755 26.3216 20.9248 24.4918 22.9174C22.1792 25.4363 19.394 27.0772 18.4588 27.5904C17.5236 27.0772 14.7384 25.4363 12.4258 22.9174C10.596 20.9248 9.04919 18.3755 9.04919 15.381C9.04919 12.9925 11.3198 10.3143 14.1159 10.3143C14.8252 10.3143 15.4883 10.6878 16.0934 11.1583C16.7933 11.7033 17.4122 12.3931 17.9159 12.9649Z" fill="white"/>
</svg>
