<svg width="36" height="36" viewBox="0 0 36 36" fill="none" xmlns="http://www.w3.org/2000/svg">
<g clip-path="url(#clip0_737_5946)">
<path fill-rule="evenodd" clip-rule="evenodd" d="M27 36H9C6.61308 35.9999 4.32396 35.0517 2.63615 33.3638C0.94835 31.676 0.000104421 29.3869 0 27L0 9C0.000104421 6.61308 0.94835 4.32396 2.63615 2.63615C4.32396 0.94835 6.61308 0.000104421 9 0L27 0C29.3869 0 31.6761 0.948212 33.364 2.63604C35.0518 4.32387 36 6.61305 36 9V27C36 29.3869 35.0518 31.6761 33.364 33.364C31.6761 35.0518 29.3869 36 27 36Z" fill="#199BDF"/>
<path fill-rule="evenodd" clip-rule="evenodd" d="M16.875 10.125H27C28.2978 10.1249 29.5461 9.62643 30.487 8.73248C31.4278 7.83853 31.9895 6.61739 32.0559 5.32125C32.1223 4.02511 31.6884 2.75296 30.8439 1.76752C29.9993 0.782083 28.8085 0.158615 27.5175 0.025875C27.3454 0.0163125 27.1749 0 27 0H9C6.61308 0.000104421 4.32396 0.94835 2.63615 2.63615C0.94835 4.32396 0.000104421 6.61308 0 9L0 27C0.000104425 22.5245 1.77803 18.2323 4.94269 15.0677C8.10734 11.903 12.3995 10.1251 16.875 10.125Z" fill="#32B4FF"/>
<path fill-rule="evenodd" clip-rule="evenodd" d="M27 18C25.22 18 23.4799 18.5278 21.9999 19.5168C20.5198 20.5057 19.3663 21.9113 18.6851 23.5558C18.0039 25.2004 17.8257 27.01 18.1729 28.7558C18.5202 30.5016 19.3774 32.1053 20.636 33.364C21.8947 34.6226 23.4984 35.4798 25.2442 35.8271C26.99 36.1743 28.7996 35.9961 30.4442 35.3149C32.0887 34.6337 33.4943 33.4802 34.4832 32.0001C35.4722 30.5201 36 28.78 36 27V9C36 11.3869 35.0518 13.6761 33.364 15.364C31.6761 17.0518 29.387 18 27 18Z" fill="#0082BE"/>
<path fill-rule="evenodd" clip-rule="evenodd" d="M25.3589 9.58084C25.6354 9.46667 25.9373 9.42807 26.2337 9.46898C26.53 9.50989 26.8102 9.62885 27.0454 9.81367C27.2806 9.99849 27.4625 10.2425 27.5724 10.5208C27.6823 10.799 27.7163 11.1015 27.6708 11.3972C27.0152 15.6603 25.8134 23.4723 25.1754 27.6191C25.1313 27.906 25.0138 28.1767 24.8345 28.405C24.6551 28.6333 24.4199 28.8115 24.1515 28.9223C23.8832 29.0331 23.5908 29.0728 23.3026 29.0375C23.0145 29.0022 22.7402 28.8932 22.5065 28.721C20.2497 27.0583 16.866 24.5653 15.1481 23.2991C15.0155 23.2014 14.906 23.0758 14.8273 22.9311C14.7486 22.7865 14.7026 22.6263 14.6926 22.4619C14.6825 22.2975 14.7087 22.133 14.7693 21.9798C14.8298 21.8267 14.9233 21.6887 15.043 21.5756C16.6171 20.0889 19.7524 17.1279 21.9095 15.0905C21.9603 15.0422 21.9913 14.9767 21.9963 14.9068C22.0013 14.8369 21.9801 14.7676 21.9367 14.7126C21.8933 14.6575 21.8309 14.6206 21.7617 14.6092C21.6926 14.5977 21.6216 14.6125 21.5628 14.6507C18.7969 16.4546 14.561 19.217 12.4849 20.571C12.0958 20.8247 11.6586 20.9954 11.2005 21.0724C10.7424 21.1493 10.2733 21.1309 9.82271 21.0182C8.67954 20.7324 7.03063 20.3201 5.56323 19.9533C5.33349 19.8959 5.12772 19.7675 4.97524 19.5863C4.82275 19.4052 4.73132 19.1805 4.71396 18.9443C4.69661 18.7082 4.75422 18.4725 4.87859 18.271C5.00296 18.0695 5.18775 17.9124 5.40663 17.822C10.5148 15.7121 20.5114 11.5833 25.3589 9.58084Z" fill="white"/>
</g>
<defs>
<clipPath id="clip0_737_5946">
<rect width="36" height="36" fill="white"/>
</clipPath>
</defs>
</svg>
