<svg width="36" height="36" viewBox="0 0 36 36" fill="none" xmlns="http://www.w3.org/2000/svg">
<g clip-path="url(#clip0_737_5932)">
<path fill-rule="evenodd" clip-rule="evenodd" d="M27 36H9C6.61308 35.9999 4.32396 35.0517 2.63615 33.3638C0.94835 31.676 0.000104421 29.3869 0 27L0 9C0.000104421 6.61308 0.94835 4.32396 2.63615 2.63615C4.32396 0.94835 6.61308 0.000104421 9 0L27 0C29.3869 0 31.6761 0.948212 33.364 2.63604C35.0518 4.32387 36 6.61305 36 9V27C36 29.3869 35.0518 31.6761 33.364 33.364C31.6761 35.0518 29.3869 36 27 36Z" fill="#00D264"/>
<path fill-rule="evenodd" clip-rule="evenodd" d="M16.875 10.125H27C28.2978 10.1249 29.5461 9.62643 30.487 8.73248C31.4278 7.83853 31.9895 6.61739 32.0559 5.32125C32.1223 4.02511 31.6884 2.75296 30.8439 1.76752C29.9993 0.782083 28.8085 0.158615 27.5175 0.025875C27.3454 0.0163125 27.1749 0 27 0H9C6.61308 0.000104421 4.32396 0.94835 2.63615 2.63615C0.94835 4.32396 0.000104421 6.61308 0 9L0 27C0.000104425 22.5245 1.77803 18.2323 4.94269 15.0677C8.10734 11.903 12.3995 10.1251 16.875 10.125Z" fill="#00EB78"/>
<path fill-rule="evenodd" clip-rule="evenodd" d="M27 18C25.22 18 23.4799 18.5278 21.9999 19.5168C20.5198 20.5057 19.3663 21.9113 18.6851 23.5558C18.0039 25.2004 17.8257 27.01 18.1729 28.7558C18.5202 30.5016 19.3774 32.1053 20.636 33.364C21.8947 34.6226 23.4984 35.4798 25.2442 35.8271C26.99 36.1743 28.7996 35.9961 30.4442 35.3149C32.0887 34.6337 33.4943 33.4802 34.4832 32.0001C35.4722 30.5201 36 28.78 36 27V9C36 11.3869 35.0518 13.6761 33.364 15.364C31.6761 17.0518 29.387 18 27 18Z" fill="#00B950"/>
<path fill-rule="evenodd" clip-rule="evenodd" d="M12.1911 26.4896C12.3408 26.447 12.4977 26.4359 12.652 26.457C12.8062 26.4781 12.9544 26.5309 13.0872 26.6122C15.3237 27.9447 17.97 28.4141 20.5284 27.9321C23.0868 27.4502 25.3809 26.0501 26.9793 23.9952C28.5777 21.9403 29.3703 19.3721 29.2079 16.7738C29.0455 14.1755 27.9393 11.7261 26.0975 9.8862C24.2556 8.04631 21.805 6.94278 19.2065 6.78314C16.6081 6.62351 14.0408 7.41878 11.9876 9.01938C9.93436 10.62 8.53671 12.9156 8.05748 15.4745C7.57826 18.0334 8.05048 20.6792 9.38535 22.9143C9.46629 23.0467 9.51888 23.1944 9.5398 23.3482C9.56071 23.5019 9.54949 23.6584 9.50685 23.8076C9.19353 24.9162 8.43753 27.5622 8.43753 27.5622C8.43753 27.5622 11.0835 26.8062 12.1911 26.4896ZM7.43572 24.0376C5.82749 21.3266 5.26424 18.1218 5.85175 15.0249C6.43926 11.928 8.1371 9.15212 10.6265 7.21848C13.1158 5.28483 16.2254 4.32646 19.3714 4.52332C22.5174 4.72018 25.4833 6.05873 27.7122 8.28762C29.9411 10.5165 31.2796 13.4824 31.4765 16.6284C31.6733 19.7743 30.7149 22.884 28.7813 25.3733C26.8477 27.8627 24.0718 29.5605 20.9749 30.148C17.878 30.7355 14.6731 30.1723 11.9622 28.5641C11.9622 28.5641 8.3751 29.5889 6.59872 30.0969C6.50222 30.1243 6.40013 30.1255 6.30302 30.1003C6.20591 30.0751 6.1173 30.0244 6.04635 29.9534C5.97541 29.8825 5.9247 29.7939 5.89948 29.6968C5.87426 29.5996 5.87545 29.4976 5.90291 29.4011C6.41085 27.6247 7.43572 24.0376 7.43572 24.0376Z" fill="white"/>
<path fill-rule="evenodd" clip-rule="evenodd" d="M12.3687 13.941C12.5437 16.4598 13.6187 18.8316 15.3974 20.6235C17.1761 22.4154 19.5398 23.5079 22.0572 23.7015H22.0583C22.4603 23.7326 22.8642 23.6763 23.2423 23.5365C23.6204 23.3967 23.9637 23.1766 24.2487 22.8915L24.6413 22.4989C24.8267 22.3134 24.9309 22.0619 24.931 21.7997V20.9661C24.931 20.8616 24.9019 20.7591 24.847 20.6702C24.792 20.5813 24.7134 20.5094 24.62 20.4626C24.0277 20.1668 22.7418 19.5238 22.1118 19.2088C22.0061 19.156 21.8866 19.1377 21.77 19.1566C21.6534 19.1755 21.5457 19.2305 21.4621 19.314C21.1482 19.6279 20.6521 20.1246 20.3708 20.4053C20.3054 20.4707 20.2248 20.5191 20.1362 20.5459C20.0476 20.5728 19.9537 20.5774 19.8629 20.5594L19.8578 20.5583C18.7688 20.3405 17.7687 19.8052 16.9834 19.0199C16.1981 18.2346 15.6628 17.2345 15.445 16.1455L15.4439 16.1404C15.4258 16.0496 15.4305 15.9557 15.4574 15.8671C15.4842 15.7785 15.5326 15.6979 15.598 15.6325C15.8787 15.3512 16.3754 14.8551 16.6893 14.5412C16.7727 14.4576 16.8278 14.3499 16.8467 14.2333C16.8656 14.1167 16.8473 13.9972 16.7945 13.8915C16.4795 13.2615 15.8365 11.9756 15.5407 11.3833C15.4939 11.2899 15.422 11.2113 15.3331 11.1563C15.2442 11.1014 15.1417 11.0723 15.0372 11.0723H14.3285C14.1602 11.0723 13.9937 11.1077 13.84 11.1761C13.6862 11.2445 13.5485 11.3444 13.4358 11.4694C13.3227 11.5954 13.1928 11.7394 13.0623 11.8845C12.8167 12.1571 12.6284 12.4763 12.5088 12.8231C12.3892 13.1699 12.3406 13.5373 12.3659 13.9033C12.367 13.9157 12.3676 13.9281 12.3687 13.941Z" fill="white"/>
</g>
<defs>
<clipPath id="clip0_737_5932">
<rect width="36" height="36" fill="white"/>
</clipPath>
</defs>
</svg>
