<svg width="36" height="36" viewBox="0 0 36 36" fill="none" xmlns="http://www.w3.org/2000/svg">
<g clip-path="url(#clip0_737_5926)">
<path fill-rule="evenodd" clip-rule="evenodd" d="M27 36H9C6.61308 35.9999 4.32396 35.0517 2.63615 33.3638C0.94835 31.676 0.000104421 29.3869 0 27L0 9C0.000104421 6.61308 0.94835 4.32396 2.63615 2.63615C4.32396 0.94835 6.61308 0.000104421 9 0L27 0C29.3869 0 31.6761 0.948212 33.364 2.63604C35.0518 4.32387 36 6.61305 36 9V27C36 29.3869 35.0518 31.6761 33.364 33.364C31.6761 35.0518 29.3869 36 27 36Z" fill="#FF0000"/>
<path fill-rule="evenodd" clip-rule="evenodd" d="M16.875 10.125H27C28.2978 10.1249 29.5461 9.62643 30.487 8.73248C31.4278 7.83853 31.9895 6.61739 32.0559 5.32125C32.1223 4.02511 31.6884 2.75296 30.8439 1.76752C29.9993 0.782083 28.8085 0.158615 27.5175 0.025875C27.3454 0.0163125 27.1749 0 27 0H9C6.61308 0.000104421 4.32396 0.94835 2.63615 2.63615C0.94835 4.32396 0.000104421 6.61308 0 9L0 27C0.000104425 22.5245 1.77803 18.2323 4.94269 15.0677C8.10734 11.903 12.3995 10.1251 16.875 10.125Z" fill="#FF5A51"/>
<path fill-rule="evenodd" clip-rule="evenodd" d="M27 18C25.22 18 23.4799 18.5278 21.9999 19.5168C20.5198 20.5057 19.3663 21.9113 18.6851 23.5558C18.0039 25.2004 17.8257 27.01 18.1729 28.7558C18.5202 30.5016 19.3774 32.1053 20.636 33.364C21.8947 34.6226 23.4984 35.4798 25.2442 35.8271C26.99 36.1743 28.7996 35.9961 30.4442 35.3149C32.0887 34.6337 33.4943 33.4802 34.4832 32.0001C35.4722 30.5201 36 28.78 36 27V9C36 11.3869 35.0518 13.6761 33.364 15.364C31.6761 17.0518 29.387 18 27 18Z" fill="#D5002C"/>
<path fill-rule="evenodd" clip-rule="evenodd" d="M14.0895 10.0558C13.9191 9.95078 13.7237 9.89319 13.5236 9.88893C13.3235 9.88467 13.1258 9.9339 12.9511 10.0315C12.7764 10.1292 12.6308 10.2717 12.5296 10.4443C12.4283 10.617 12.3749 10.8135 12.375 11.0137V24.9873C12.3749 25.1875 12.4283 25.384 12.5296 25.5567C12.6308 25.7294 12.7764 25.8719 12.9511 25.9695C13.1258 26.0671 13.3235 26.1163 13.5236 26.1121C13.7237 26.1078 13.9191 26.0502 14.0895 25.9453C16.9577 24.1807 22.6839 20.6566 25.443 18.9584C25.6067 18.8578 25.7418 18.7169 25.8355 18.5492C25.9293 18.3815 25.9785 18.1926 25.9785 18.0005C25.9785 17.8084 25.9293 17.6195 25.8355 17.4518C25.7418 17.2841 25.6067 17.1432 25.443 17.0426C22.6839 15.3444 16.9577 11.8203 14.0895 10.0558Z" fill="white"/>
</g>
<defs>
<clipPath id="clip0_737_5926">
<rect width="36" height="36" fill="white"/>
</clipPath>
</defs>
</svg>
